<?xml version="1.0" standalone="no"?><!DOCTYPE svg PUBLIC "-//W3C//DTD SVG 1.1//EN" "http://www.w3.org/Graphics/SVG/1.1/DTD/svg11.dtd"><svg t="1673748486446" class="icon" viewBox="0 0 1024 1024" version="1.1" xmlns="http://www.w3.org/2000/svg" p-id="2694" xmlns:xlink="http://www.w3.org/1999/xlink" width="200" height="200"><path d="M512 149.333333c200.298667 0 362.666667 162.368 362.666667 362.666667s-162.368 362.666667-362.666667 362.666667S149.333333 712.298667 149.333333 512 311.701333 149.333333 512 149.333333z m0 64c-164.949333 0-298.666667 133.717333-298.666667 298.666667s133.717333 298.666667 298.666667 298.666667 298.666667-133.717333 298.666667-298.666667-133.717333-298.666667-298.666667-298.666667z m-1.813333 109.568l195.029333 195.029334-45.248 45.248-118.186667-118.186667-0.021333 262.101333h-64V445.845333l-117.354667 117.333334-45.248-45.248 195.029334-195.029334z" fill="#007FFC" p-id="2695"></path></svg>